<svg width="21" height="21" viewBox="0 0 21 21" fill="none" xmlns="http://www.w3.org/2000/svg">
<path d="M20.25 13.125C20.25 14.6438 19.0188 15.875 17.5 15.875H7C5.48122 15.875 4.25 14.6438 4.25 13.125V6.62891L10.9189 10.5703L10.9229 10.5723C11.7566 11.0592 12.7434 11.0592 13.5771 10.5723L13.5811 10.5703L20.25 6.62891V13.125ZM17.5 2.5C18.8085 2.5 19.9015 3.41435 20.1797 4.63867L19.6797 4.93457L12.6904 9.06348C12.4045 9.22873 12.0955 9.22873 11.8096 9.06348L4.82031 4.93457L4.31934 4.63867C4.5974 3.41425 5.69142 2.5 7 2.5H17.5Z" fill="#1B1B1B"/>
<path d="M1.75 7V16.625C1.75 17.5875 2.5375 18.375 3.5 18.375H15.75" stroke="#1B1B1B" stroke-width="2" stroke-linecap="round" stroke-linejoin="round"/>
</svg>
