<svg width="157" height="162" viewBox="0 0 157 162" fill="none" xmlns="http://www.w3.org/2000/svg">
<path d="M66.6563 73.6365H55.7056C52.5143 73.6466 49.3839 72.762 46.6693 71.0831C43.9547 69.4042 41.7644 66.9981 40.3465 64.1374L35.6365 54.7168C34.7897 53.0111 34.3473 51.133 34.3438 49.2285V42.6429C34.348 39.9139 35.2574 37.2636 36.9293 35.1075L52.0332 15.6748C52.3812 15.227 52.8733 14.9136 53.4261 14.7879C53.9789 14.6621 54.5581 14.7318 55.0653 14.9851L74.1727 24.5455C76.2149 25.5587 77.9326 27.124 79.1311 29.0641C80.3295 31.0042 80.9607 33.2415 80.9531 35.5223V57.2965C80.9571 58.9087 80.6415 60.5057 80.0246 61.9951C79.4077 63.4844 78.5018 64.8366 77.3593 65.9734L71.8594 71.4789C71.1779 72.1651 70.3672 72.7092 69.474 73.0796C68.5809 73.4499 67.6231 73.6392 66.6563 73.6365ZM54.6703 20.2771L40.8004 38.1192C39.7988 39.4146 39.2537 41.0051 39.25 42.6429V49.2285C39.2513 50.3716 39.5166 51.4989 40.0252 52.5225L44.7352 61.943C45.7479 63.9862 47.3124 65.7048 49.2514 66.9039C51.1903 68.103 53.4262 68.7347 55.7056 68.7274H66.6563C67.3064 68.7248 67.9294 68.4665 68.3907 68.0082L73.8906 62.5026C75.267 61.1194 76.0419 59.2484 76.0469 57.2965V35.5223C76.0511 34.1541 75.6723 32.812 74.9535 31.6481C74.2346 30.4842 73.2045 29.545 71.9796 28.9367L54.6703 20.2771Z" fill="#424242"/>
<path d="M73.5938 90.8182H63.3593C62.3925 90.821 61.4348 90.6317 60.5416 90.2614C59.6485 89.891 58.8377 89.3469 58.1562 88.6607L49.7813 80.2809C49.3212 79.8207 49.0626 79.1965 49.0625 78.5455V71.1819H53.9688V77.5293L61.625 85.19C62.0863 85.6483 62.7092 85.9066 63.3593 85.9092H73.5938C74.2444 85.9092 74.8683 85.6506 75.3284 85.1902C75.7884 84.7299 76.0469 84.1056 76.0469 83.4546V73.6364H80.9531V83.4546C80.9531 85.4076 80.1778 87.2805 78.7976 88.6615C77.4175 90.0424 75.5456 90.8182 73.5938 90.8182Z" fill="#424242"/>
<path d="M73.5938 103.091H63.6856C62.582 103.093 61.4921 102.846 60.4973 102.368C59.5025 101.89 58.6285 101.193 57.9404 100.33L49.5997 89.8978C49.2517 89.4623 49.0622 88.9213 49.0625 88.3637V78.5455H53.9688V87.5022L61.7721 97.2614C62.0011 97.5493 62.2921 97.7816 62.6235 97.941C62.9548 98.1004 63.3179 98.1827 63.6856 98.1819H73.5938C74.2444 98.1819 74.8683 97.9233 75.3284 97.463C75.7884 97.0027 76.0469 96.3783 76.0469 95.7274V90.8183H80.9531V95.7274C80.9531 97.6803 80.1778 99.5533 78.7976 100.934C77.4175 102.315 75.5456 103.091 73.5938 103.091Z" fill="#424242"/>
<path d="M78.5 112.909H64.3602C62.9927 112.914 61.6512 112.535 60.4878 111.816C59.3245 111.097 58.3859 110.065 57.7785 108.84L54.2263 101.734C54.0566 101.393 53.9684 101.017 53.9688 100.636V93.2728H58.875V100.057L62.1671 106.643C62.3707 107.05 62.6837 107.393 63.071 107.633C63.4583 107.873 63.9047 108 64.3602 108H78.5V112.909Z" fill="#424242"/>
<path d="M68.0939 142.29L63.5507 141.154C61.5813 140.658 59.8136 139.565 58.4905 138.023C57.1675 136.482 56.354 134.568 56.1619 132.545C56.0056 129.554 55.3514 126.61 54.2264 123.834C52.8819 121.913 50.9813 120.45 48.7804 119.642C46.665 118.654 44.8754 117.082 43.6218 115.112C42.3681 113.141 41.7025 110.854 41.7031 108.518V108C41.7032 107.799 41.7279 107.599 41.7767 107.404L44.0704 98.2235L39.5935 82.5414L32.9823 78.1233C32.5613 77.8422 32.2375 77.4378 32.0552 76.9654C31.873 76.493 31.8412 75.9758 31.9642 75.4846L36.8705 55.8483L41.6296 57.0412L37.1428 74.9986L43.0646 78.948C43.5479 79.2719 43.9015 79.756 44.0631 80.3152L48.9693 97.497C49.0874 97.9117 49.0941 98.3503 48.9889 98.7684L46.6094 108.518C46.6106 109.915 47.0091 111.283 47.7584 112.463C48.5078 113.642 49.5769 114.583 50.841 115.177C54.0787 116.402 56.8153 118.673 58.6174 121.63C60.0348 124.943 60.8577 128.48 61.0485 132.079C61.1407 133.09 61.5441 134.048 62.2031 134.821C62.8621 135.593 63.7443 136.142 64.7282 136.392L69.2689 137.528L68.0939 142.29Z" fill="#424242"/>
<path d="M71.1406 142.364C46.1531 142.364 38.2148 137.258 37.8885 137.042C37.5526 136.818 37.2773 136.514 37.0868 136.158C36.8964 135.802 36.7968 135.404 36.7969 135V127.636C36.7969 121.876 44.0483 114.455 44.875 113.628L48.3437 117.099C45.5864 119.863 41.7031 124.961 41.7031 127.636V133.488C44.4801 134.676 52.9188 137.455 71.1406 137.455V142.364Z" fill="#424242"/>
<path d="M17.1718 61.3637C17.0462 61.3637 16.9207 61.3539 16.7965 61.3342C16.4604 61.2823 16.1388 61.161 15.852 60.978C15.5653 60.795 15.3197 60.5544 15.1308 60.2714L10.2246 52.9078C9.95657 52.504 9.81324 52.0302 9.81247 51.5455V36.9704C9.80107 33.5338 10.8248 30.1734 12.7501 27.3275C14.6755 24.4815 17.4132 22.2821 20.6062 21.0159L35.8867 14.8991C36.1765 14.7846 36.4853 14.7262 36.7968 14.7273H53.9687V19.6364H37.2678L22.4289 25.5764C20.1481 26.4803 18.1925 28.0508 16.8172 30.0833C15.4418 32.1158 14.7105 34.5159 14.7187 36.9704V50.8091L17.7287 55.3279L27.9043 47.1813C28.224 46.9252 28.6028 46.7533 29.006 46.6813C29.4093 46.6093 29.8241 46.6394 30.2127 46.7689L37.572 49.2235L36.0217 53.8871L29.9281 51.8425L18.7051 60.8261C18.2698 61.1743 17.7291 61.3639 17.1718 61.3637Z" fill="#424242"/>
<path d="M29.4375 98.1819C29.1373 98.1825 28.8396 98.1275 28.5593 98.0199L17.9691 93.9478C15.5273 92.7794 13.4656 90.9436 12.0223 88.6524C10.5789 86.3613 9.81285 83.7084 9.8125 81.0001C9.8131 80.7364 9.85617 80.4745 9.94006 80.2244L14.7188 65.8752V58.9092H19.625V66.2728C19.6244 66.5365 19.5813 66.7984 19.4974 67.0485L14.7188 81.3756C14.7802 83.0689 15.2977 84.7141 16.2165 86.1373C17.1354 87.5605 18.4216 88.7088 19.939 89.4609L28.2306 92.6395L31.8906 85.3299V76.091H36.7969V85.9092C36.7972 86.2899 36.709 86.6656 36.5393 87.0064L31.633 96.8245C31.4293 97.2326 31.1159 97.5757 30.7281 97.8155C30.3403 98.0552 29.8934 98.1821 29.4375 98.1819Z" fill="#424242"/>
<path d="M26.9844 157.091H12.2656C11.6151 157.091 10.9912 156.832 10.5313 156.372L8.07814 153.917C7.77596 153.615 7.5578 153.24 7.44524 152.827L0.0858594 125.827C0.0291618 125.617 0.00029597 125.4 0 125.182L0 95.7273C2.1089e-05 95.5262 0.0247376 95.3259 0.0735938 95.1308L2.45313 85.6072V63.8182C2.45327 63.3728 2.57453 62.9358 2.80392 62.5541L10.1633 50.2814L14.368 52.8096L7.35938 64.4981V85.9091C7.35935 86.1102 7.33464 86.3105 7.28578 86.5055L4.90625 96.0292V124.853L12.008 150.905L13.2812 152.182H24.0872L22.1125 140.314C22.0624 140.017 22.0674 139.713 22.1272 139.418L26.8519 115.774L17.4957 99.4091C17.2821 99.0355 17.1704 98.6122 17.1719 98.1818V90.8182H22.0781V97.5289L31.5668 114.146C31.8615 114.66 31.9592 115.264 31.8416 115.845L27.0261 139.951L29.4032 154.231C29.462 154.583 29.4435 154.943 29.349 155.287C29.2545 155.631 29.0864 155.95 28.8562 156.222C28.626 156.494 28.3393 156.713 28.016 156.863C27.6928 157.013 27.3407 157.091 26.9844 157.091Z" fill="#424242"/>
<path d="M31.8906 95.7273H26.9844V115.364H31.8906V95.7273Z" fill="#424242"/>
<path d="M38.3301 19.0989L35.2637 15.2649L38.1216 12.9772C44.0541 8.24131 51.3003 5.44828 58.875 4.97786V2.45459H63.7812V7.36368C63.7812 8.01467 63.5228 8.63899 63.0627 9.09931C62.6027 9.55962 61.9787 9.81823 61.3281 9.81823C54.0154 9.79053 46.9116 12.2571 41.188 16.8112L38.3301 19.0989Z" fill="#424242"/>
<path d="M118.67 19.0989L115.812 16.8112C110.153 12.293 103.13 9.8278 95.8902 9.81823C95.2165 9.82569 94.5652 9.57603 94.0689 9.12004C93.5726 8.66406 93.2686 8.036 93.2188 7.36368V2.45459H98.125V4.98768C105.698 5.45826 112.943 8.24749 118.878 12.9772L121.736 15.2649L118.67 19.0989Z" fill="#424242"/>
<path d="M101.295 73.6365H90.3438C89.3769 73.6392 88.4192 73.4499 87.5261 73.0796C86.6329 72.7092 85.8221 72.1651 85.1407 71.4789L79.6408 65.9734C78.4982 64.8366 77.5923 63.4844 76.9754 61.9951C76.3586 60.5057 76.043 58.9087 76.0469 57.2965V35.5223C76.0394 33.2415 76.6706 31.0042 77.869 29.0641C79.0674 27.124 80.7851 25.5587 82.8274 24.5455L101.935 14.9851C102.442 14.7318 103.021 14.6621 103.574 14.7879C104.127 14.9136 104.619 15.227 104.967 15.6748L120.071 35.1001C121.744 37.2582 122.654 39.9114 122.656 42.6429V49.2285C122.653 51.133 122.21 53.0111 121.364 54.7168L116.654 64.1374C115.236 66.9981 113.045 69.4042 110.331 71.0831C107.616 72.762 104.486 73.6466 101.295 73.6365ZM102.33 20.2771L85.0205 28.9367C83.7956 29.545 82.7654 30.4842 82.0466 31.6481C81.3277 32.812 80.949 34.1541 80.9532 35.5223V57.2965C80.9582 59.2484 81.7331 61.1194 83.1095 62.5026L88.6094 68.0082C89.0707 68.4665 89.6937 68.7248 90.3438 68.7274H101.295C103.574 68.7347 105.81 68.103 107.749 66.9039C109.688 65.7048 111.252 63.9862 112.265 61.943L116.975 52.52C117.484 51.4974 117.749 50.3708 117.75 49.2285V42.6429C117.746 41.0051 117.201 39.4146 116.2 38.1192L102.33 20.2771Z" fill="#424242"/>
<path d="M93.6407 90.8182H83.4062C81.4544 90.8182 79.5825 90.0424 78.2024 88.6615C76.8222 87.2805 76.0469 85.4076 76.0469 83.4546V73.6364H80.9531V83.4546C80.9531 84.1056 81.2116 84.7299 81.6716 85.1902C82.1317 85.6506 82.7556 85.9092 83.4062 85.9092H93.6407C94.2908 85.9066 94.9137 85.6483 95.3751 85.19L103.031 77.5293V71.1819H107.938V78.5455C107.937 79.1965 107.679 79.8207 107.219 80.2809L98.8438 88.6607C98.1623 89.3469 97.3515 89.891 96.4584 90.2614C95.5652 90.6317 94.6075 90.821 93.6407 90.8182Z" fill="#424242"/>
<path d="M93.3144 103.091H83.4062C81.4544 103.091 79.5825 102.315 78.2024 100.934C76.8222 99.5533 76.0469 97.6803 76.0469 95.7274V90.8183H80.9531V95.7274C80.9531 96.3783 81.2116 97.0027 81.6716 97.463C82.1317 97.9233 82.7556 98.1819 83.4062 98.1819H93.3144C93.6825 98.1817 94.0458 98.0987 94.3775 97.9389C94.7092 97.7792 95.0006 97.5468 95.2303 97.259L103.031 87.5022V78.5455H107.938V88.3637C107.938 88.9213 107.748 89.4623 107.4 89.8978L99.0596 100.327C98.3717 101.191 97.4977 101.888 96.5029 102.366C95.5081 102.845 94.4182 103.093 93.3144 103.091Z" fill="#424242"/>
<path d="M92.6398 112.909H78.5V108H92.6398C93.0953 108 93.5417 107.873 93.929 107.633C94.3163 107.393 94.6293 107.05 94.8329 106.643L98.125 100.057V93.2728H103.031V100.636C103.035 101.016 102.951 101.392 102.786 101.734L99.2338 108.84C98.6255 110.067 97.6849 111.1 96.5192 111.819C95.3535 112.539 94.0094 112.916 92.6398 112.909Z" fill="#424242"/>
<path d="M84.0907 142.364H70.4562C69.4253 142.365 68.4201 142.041 67.5834 141.438C66.7467 140.836 66.1211 139.985 65.7953 139.006L61.701 126.716C61.4501 125.964 61.3225 125.177 61.3232 124.384V110.455H66.2295V124.384C66.2287 124.648 66.271 124.91 66.3546 125.16L70.4562 137.455H84.0907C84.9427 137.491 85.7956 137.408 86.6248 137.209L90.6405 125.155C90.7231 124.906 90.7653 124.646 90.7657 124.384V110.455H95.6719V124.384C95.6726 125.177 95.545 125.964 95.2941 126.716L91.1974 139.008C90.0837 142.364 86.036 142.364 84.0907 142.364Z" fill="#424242"/>
<path d="M88.9062 142.29L87.7189 137.528L92.2596 136.392C93.2435 136.142 94.1257 135.593 94.7847 134.821C95.4437 134.048 95.8471 133.091 95.9393 132.079C96.13 128.48 96.953 124.943 98.3703 121.63C100.172 118.673 102.909 116.402 106.147 115.177C107.413 114.585 108.485 113.644 109.236 112.465C109.988 111.286 110.388 109.917 110.391 108.518V108.302L108.011 98.7783C107.906 98.3602 107.913 97.9216 108.031 97.5069L112.937 80.3251C113.099 79.7659 113.452 79.2818 113.935 78.9579L119.857 75.0085L115.37 57.0511L120.13 55.8582L125.036 75.4945C125.159 75.9857 125.127 76.5029 124.945 76.9753C124.763 77.4477 124.439 77.8521 124.018 78.1332L117.407 82.5513L112.93 98.2334L115.223 107.413C115.271 107.605 115.296 107.802 115.297 108V108.518C115.296 110.852 114.629 113.138 113.376 115.106C112.122 117.075 110.333 118.645 108.22 119.632C106.019 120.44 104.118 121.903 102.774 123.825C101.648 126.603 100.993 129.551 100.838 132.546C100.648 134.57 99.8354 136.486 98.5122 138.029C97.189 139.572 95.4202 140.667 93.4494 141.163L88.9062 142.29Z" fill="#424242"/>
<path d="M85.8594 142.364V137.455C104.052 137.455 112.49 134.686 115.297 133.483V127.636C115.297 124.961 111.414 119.863 108.656 117.099L112.125 113.628C112.952 114.455 120.203 121.876 120.203 127.636V135C120.203 135.404 120.104 135.802 119.913 136.158C119.723 136.514 119.447 136.818 119.111 137.042C118.785 137.258 110.847 142.364 85.8594 142.364Z" fill="#424242"/>
<path d="M139.828 61.3637C139.271 61.3639 138.73 61.1743 138.295 60.8261L127.072 51.8425L120.978 53.8748L119.428 49.2112L126.787 46.7567C127.176 46.6271 127.591 46.597 127.994 46.669C128.397 46.741 128.776 46.9129 129.096 47.169L139.271 55.3157L142.281 50.8091V36.9704C142.289 34.5157 141.557 32.1155 140.182 30.0828C138.807 28.05 136.852 26.4788 134.571 25.5739L119.732 19.6364H103.031V14.7273H120.203C120.515 14.727 120.824 14.7862 121.113 14.9016L136.394 21.0158C139.586 22.2826 142.324 24.4822 144.249 27.328C146.174 30.1738 147.198 33.5339 147.188 36.9704V51.5455C147.187 52.0302 147.043 52.504 146.775 52.9078L141.869 60.2714C141.68 60.5544 141.435 60.795 141.148 60.978C140.861 61.1609 140.54 61.2823 140.203 61.3342C140.079 61.3539 139.954 61.3637 139.828 61.3637Z" fill="#424242"/>
<path d="M127.563 98.1819C127.105 98.1844 126.655 98.0586 126.265 97.8187C125.875 97.5788 125.559 97.2344 125.355 96.8245L120.448 87.0064C120.283 86.6645 120.199 86.289 120.203 85.9092V76.091H125.109V85.3299L128.76 92.6371L137.272 89.3652C138.741 88.599 139.98 87.4549 140.86 86.0506C141.741 84.6463 142.231 83.0326 142.281 81.3756L137.51 67.0485C137.424 66.7989 137.378 66.5369 137.375 66.2728V58.9092H142.281V65.8752L147.06 80.2244C147.144 80.4745 147.187 80.7364 147.188 81.0001C147.196 83.6704 146.457 86.2898 145.054 88.5614C143.651 90.8329 141.64 92.6657 139.249 93.8521L128.441 98.0248C128.16 98.1308 127.862 98.184 127.563 98.1819Z" fill="#424242"/>
<path d="M144.734 157.091H130.016C129.659 157.091 129.307 157.013 128.984 156.863C128.661 156.713 128.374 156.494 128.144 156.222C127.914 155.95 127.745 155.631 127.651 155.287C127.557 154.943 127.538 154.583 127.597 154.231L129.974 139.951L125.158 115.855C125.041 115.274 125.138 114.67 125.433 114.156L134.922 97.5289V90.8182H139.828V98.1818C139.83 98.6122 139.718 99.0355 139.504 99.4091L130.148 115.793L134.873 139.418C134.931 139.71 134.936 140.01 134.888 140.304L132.913 152.182H143.719L144.992 150.905L152.094 124.853V96.0292L149.714 86.5055C149.665 86.3105 149.641 86.1102 149.641 85.9091V64.4981L142.632 52.8096L146.837 50.2814L154.196 62.5541C154.425 62.9358 154.547 63.3728 154.547 63.8182V85.6072L156.926 95.1308C156.975 95.3259 157 95.5262 157 95.7273V125.182C157 125.4 156.971 125.617 156.914 125.827L149.555 152.827C149.442 153.24 149.224 153.615 148.922 153.917L146.469 156.372C146.009 156.832 145.385 157.091 144.734 157.091Z" fill="#424242"/>
<path d="M130.016 95.7273H125.109V115.364H130.016V95.7273Z" fill="#424242"/>
<path d="M125.109 157.091H31.8906C31.24 157.091 30.6161 156.832 30.156 156.372C29.696 155.912 29.4375 155.287 29.4375 154.636V149.727C29.4371 149.347 29.5253 148.971 29.6951 148.63L37.0545 133.903L41.4455 136.097L34.3438 150.307V152.182H122.656V150.307L115.542 136.097L119.933 133.903L127.293 148.63C127.467 148.97 127.559 149.346 127.562 149.727V154.636C127.562 155.287 127.304 155.912 126.844 156.372C126.384 156.832 125.76 157.091 125.109 157.091Z" fill="#424242"/>
<path d="M78.5 24.5455C77.3998 24.5483 76.3099 24.3328 75.2935 23.9115C74.277 23.4902 73.3541 22.8714 72.5782 22.091L66.9531 16.4627C66.4931 16.0025 66.2345 15.3783 66.2344 14.7273V2.45459H71.1406V13.7111L76.0469 18.6202C76.7074 19.2522 77.5861 19.6049 78.5 19.6049C79.4139 19.6049 80.2926 19.2522 80.9531 18.6202L85.8594 13.7111V2.45459H90.7656V14.7273C90.7655 15.3783 90.5069 16.0025 90.0469 16.4627L84.4218 22.091C83.6459 22.8714 82.723 23.4902 81.7065 23.9115C80.6901 24.3328 79.6002 24.5483 78.5 24.5455Z" fill="#424242"/>
</svg>
