<svg width="159" height="161" viewBox="0 0 159 161" fill="none" xmlns="http://www.w3.org/2000/svg">
<path d="M66.6563 71.7956H55.7056C52.5143 71.8058 49.3839 70.9137 46.6693 69.2203C43.9547 67.5269 41.7644 65.1 40.3465 62.2146L35.6365 52.7129C34.7897 50.9925 34.3473 49.0982 34.3438 47.1772V40.5349C34.348 37.7824 35.2574 35.1091 36.9293 32.9344L52.0332 13.3342C52.3812 12.8826 52.8733 12.5665 53.4261 12.4397C53.9789 12.3128 54.5581 12.3831 55.0653 12.6386L74.1727 22.2815C76.2149 23.3033 77.9326 24.8821 79.1311 26.839C80.3295 28.7958 80.9607 31.0524 80.9531 33.3528V55.3148C80.9571 56.9409 80.6415 58.5517 80.0246 60.0539C79.4077 61.5561 78.5018 62.9199 77.3593 64.0665L71.8594 69.6195C71.1779 70.3116 70.3672 70.8604 69.474 71.2339C68.5809 71.6075 67.6231 71.7984 66.6563 71.7956ZM54.6703 17.9762L40.8004 35.9721C39.7988 37.2787 39.2537 38.8829 39.25 40.5349V47.1772C39.2513 48.3301 39.5166 49.4672 40.0252 50.4996L44.7352 60.0014C45.7479 62.0622 47.3124 63.7956 49.2514 65.005C51.1903 66.2144 53.4262 66.8516 55.7056 66.8442H66.6563C67.3064 66.8417 67.9294 66.5811 68.3907 66.1188L73.8906 60.5658C75.267 59.1707 76.0419 57.2836 76.0469 55.3148V33.3528C76.0511 31.9728 75.6723 30.6192 74.9535 29.4453C74.2346 28.2713 73.2045 27.324 71.9796 26.7105L54.6703 17.9762Z" fill="black"/>
<path d="M73.5938 89.1255H63.3593C62.3925 89.1283 61.4348 88.9374 60.5416 88.5638C59.6485 88.1902 58.8377 87.6415 58.1562 86.9493L49.7813 78.4973C49.3212 78.0331 49.0626 77.4035 49.0625 76.747V69.3198H53.9688V75.722L61.625 83.4487C62.0863 83.911 62.7092 84.1715 63.3593 84.1741H73.5938C74.2444 84.1741 74.8683 83.9132 75.3284 83.449C75.7884 82.9847 76.0469 82.355 76.0469 81.6984V71.7955H80.9531V81.6984C80.9531 83.6682 80.1778 85.5573 78.7976 86.9501C77.4175 88.343 75.5456 89.1255 73.5938 89.1255Z" fill="black"/>
<path d="M73.5938 101.504H63.6856C62.582 101.506 61.4921 101.257 60.4973 100.775C59.5025 100.293 58.6285 99.5898 57.9404 98.719L49.5997 88.1972C49.2517 87.758 49.0622 87.2123 49.0625 86.6499V76.7471H53.9688V85.7809L61.7721 95.6244C62.0011 95.9147 62.2921 96.149 62.6235 96.3097C62.9548 96.4705 63.3179 96.5536 63.6856 96.5527H73.5938C74.2444 96.5527 74.8683 96.2919 75.3284 95.8276C75.7884 95.3633 76.0469 94.7336 76.0469 94.077V89.1256H80.9531V94.077C80.9531 96.0468 80.1778 97.9359 78.7976 99.3288C77.4175 100.722 75.5456 101.504 73.5938 101.504Z" fill="black"/>
<path d="M78.5 111.407H64.3602C62.9927 111.412 61.6512 111.03 60.4878 110.304C59.3245 109.579 58.3859 108.539 57.7785 107.302L54.2263 100.135C54.0566 99.7912 53.9684 99.4124 53.9688 99.0283V91.6012H58.875V98.4441L62.1671 105.086C62.3707 105.498 62.6837 105.843 63.071 106.085C63.4583 106.327 63.9047 106.455 64.3602 106.455H78.5V111.407Z" fill="black"/>
<path d="M68.0939 141.041L63.5507 139.895C61.5813 139.395 59.8136 138.292 58.4905 136.737C57.1675 135.183 56.354 133.253 56.1619 131.212C56.0056 128.195 55.3515 125.226 54.2264 122.426C52.8819 120.488 50.9813 119.012 48.7804 118.198C46.665 117.201 44.8754 115.616 43.6218 113.628C42.3681 111.641 41.7025 109.334 41.7032 106.978V106.455C41.7032 106.253 41.7279 106.051 41.7767 105.854L44.0704 96.5946L39.5935 80.7773L32.9823 76.3211C32.5613 76.0376 32.2375 75.6297 32.0552 75.1532C31.873 74.6768 31.8412 74.1551 31.9642 73.6597L36.8705 53.854L41.6296 55.0572L37.1428 73.1695L43.0646 77.1529C43.5479 77.4796 43.9015 77.9679 44.0631 78.5319L48.9693 95.8618C49.0874 96.2801 49.0941 96.7225 48.9889 97.1443L46.6094 106.978C46.6106 108.387 47.0091 109.767 47.7584 110.956C48.5078 112.146 49.5769 113.095 50.841 113.694C54.0787 114.93 56.8153 117.22 58.6174 120.203C60.0348 123.545 60.8577 127.112 61.0485 130.742C61.1407 131.762 61.5441 132.728 62.2031 133.507C62.8621 134.286 63.7443 134.84 64.7282 135.092L69.2689 136.238L68.0939 141.041Z" fill="black"/>
<path d="M71.1406 141.115C46.1531 141.115 38.2148 135.966 37.8885 135.748C37.5526 135.522 37.2773 135.216 37.0868 134.856C36.8964 134.497 36.7968 134.096 36.7969 133.688V126.261C36.7969 120.451 44.0483 112.967 44.875 112.132L48.3437 115.633C45.5864 118.421 41.7031 123.563 41.7031 126.261V132.163C44.4801 133.361 52.9188 136.164 71.1406 136.164V141.115Z" fill="black"/>
<path d="M17.1718 59.4169C17.0462 59.417 16.9207 59.407 16.7965 59.3872C16.4604 59.3348 16.1388 59.2124 15.852 59.0279C15.5653 58.8434 15.3197 58.6007 15.1308 58.3152L10.2246 50.8881C9.95657 50.4808 9.81324 50.003 9.81247 49.5141V34.8133C9.80107 31.347 10.8248 27.9577 12.7501 25.0872C14.6755 22.2168 17.4132 19.9983 20.6062 18.7212L35.8867 12.5517C36.1765 12.4362 36.4853 12.3774 36.7968 12.3784H53.9687V17.3299H37.2678L22.4289 23.3211C20.1481 24.2327 18.1925 25.8169 16.8172 27.8669C15.4418 29.9169 14.7105 32.3376 14.7187 34.8133V48.7714L17.7287 53.3291L27.9043 45.1123C28.224 44.854 28.6028 44.6806 29.006 44.6079C29.4093 44.5353 29.8241 44.5657 30.2127 44.6963L37.572 47.172L36.0217 51.8759L29.9281 49.8136L18.7051 58.8747C18.2698 59.2259 17.7291 59.4172 17.1718 59.4169Z" fill="black"/>
<path d="M29.4375 96.5526C29.1373 96.5532 28.8396 96.4978 28.5593 96.3892L17.9691 92.282C15.5273 91.1035 13.4656 89.2519 12.0223 86.941C10.5789 84.6301 9.81285 81.9543 9.8125 79.2227C9.8131 78.9567 9.85617 78.6925 9.94006 78.4403L14.7188 63.9673V56.9413H19.625V64.3684C19.6244 64.6344 19.5813 64.8986 19.4974 65.1507L14.7188 79.6015C14.7802 81.3093 15.2977 82.9687 16.2165 84.4041C17.1354 85.8396 18.4216 86.9979 19.939 87.7564L28.2306 90.9625L31.8906 83.5898V74.2712H36.7969V84.1741C36.7972 84.5581 36.709 84.937 36.5393 85.2807L31.633 95.1836C31.4293 95.5951 31.1159 95.9412 30.7281 96.183C30.3403 96.4249 29.8934 96.5528 29.4375 96.5526Z" fill="black"/>
<path d="M26.9844 155.97H12.2656C11.6151 155.969 10.9912 155.709 10.5313 155.244L8.07814 152.769C7.77596 152.464 7.5578 152.085 7.44523 151.669L0.0858594 124.437C0.0291618 124.224 0.00029597 124.005 0 123.785L0 94.0769C2.1089e-05 93.8741 0.0247376 93.672 0.0735937 93.4753L2.45312 83.8695V61.8927C2.45327 61.4434 2.57453 61.0027 2.80392 60.6177L10.1633 48.2391L14.368 50.7891L7.35937 62.5784V84.1741C7.35935 84.3769 7.33464 84.5789 7.28578 84.7757L4.90625 94.3814V123.454L12.008 149.731L13.2812 151.018H24.0872L22.1125 139.048C22.0624 138.749 22.0674 138.442 22.1272 138.145L26.8519 114.296L17.4957 97.7905C17.2821 97.4136 17.1704 96.9867 17.1719 96.5526V89.1255H22.0781V95.8941L31.5668 112.655C31.8615 113.173 31.9592 113.782 31.8416 114.368L27.0261 138.682L29.4032 153.085C29.4619 153.44 29.4435 153.803 29.349 154.15C29.2545 154.497 29.0864 154.819 28.8562 155.093C28.6259 155.368 28.3392 155.588 28.016 155.74C27.6927 155.891 27.3407 155.97 26.9844 155.97Z" fill="black"/>
<path d="M31.8906 94.077H26.9844V113.883H31.8906V94.077Z" fill="black"/>
<path d="M38.3301 16.7878L35.2637 12.9207L38.1216 10.6134C44.0541 5.83661 51.3003 3.0195 58.875 2.54503V0H63.7812V4.95142C63.7812 5.60802 63.5228 6.23772 63.0627 6.70201C62.6027 7.16629 61.9787 7.42713 61.3281 7.42713C54.0154 7.39919 46.9116 9.88702 41.188 14.4804L38.3301 16.7878Z" fill="black"/>
<path d="M118.67 16.7878L115.812 14.4804C110.153 9.9232 103.13 7.43678 95.8902 7.42713C95.2165 7.43466 94.5652 7.18285 94.0689 6.72293C93.5726 6.26301 93.2686 5.62954 93.2188 4.95142V0H98.125V2.55493C105.698 3.02957 112.943 5.84284 118.878 10.6134L121.736 12.9207L118.67 16.7878Z" fill="black"/>
<path d="M101.294 71.7956H90.3437C89.3769 71.7984 88.4191 71.6075 87.526 71.2339C86.6329 70.8604 85.8221 70.3116 85.1406 69.6195L79.6407 64.0665C78.4982 62.9199 77.5923 61.5561 76.9754 60.0539C76.3585 58.5517 76.0429 56.9409 76.0469 55.3148V33.3528C76.0393 31.0524 76.6705 28.7958 77.8689 26.839C79.0674 24.8821 80.7851 23.3033 82.8273 22.2815L101.935 12.6386C102.442 12.3831 103.021 12.3128 103.574 12.4397C104.127 12.5665 104.619 12.8826 104.967 13.3342L120.071 32.927C121.744 35.1037 122.654 37.7798 122.656 40.5349V47.1772C122.653 49.0982 122.21 50.9925 121.363 52.7129L116.653 62.2146C115.236 65.1 113.045 67.5269 110.331 69.2203C107.616 70.9137 104.486 71.8058 101.294 71.7956ZM102.33 17.9762L85.0204 26.7105C83.7955 27.324 82.7654 28.2713 82.0465 29.4453C81.3277 30.6192 80.9489 31.9728 80.9531 33.3528V55.3148C80.9581 57.2836 81.733 59.1707 83.1094 60.5658L88.6093 66.1188C89.0706 66.5811 89.6936 66.8417 90.3437 66.8442H101.294C103.574 66.8516 105.81 66.2144 107.749 65.005C109.688 63.7956 111.252 62.0622 112.265 60.0014L116.975 50.4971C117.484 49.4657 117.749 48.3294 117.75 47.1772V40.5349C117.746 38.8829 117.201 37.2787 116.2 35.9721L102.33 17.9762Z" fill="black"/>
<path d="M93.6407 89.1255H83.4062C81.4544 89.1255 79.5825 88.343 78.2024 86.9501C76.8222 85.5573 76.0469 83.6682 76.0469 81.6984V71.7955H80.9531V81.6984C80.9531 82.355 81.2116 82.9847 81.6716 83.449C82.1317 83.9132 82.7556 84.1741 83.4062 84.1741H93.6407C94.2908 84.1715 94.9137 83.911 95.3751 83.4487L103.031 75.722V69.3198H107.938V76.747C107.937 77.4035 107.679 78.0331 107.219 78.4973L98.8438 86.9493C98.1623 87.6415 97.3515 88.1902 96.4584 88.5638C95.5652 88.9374 94.6075 89.1283 93.6407 89.1255Z" fill="black"/>
<path d="M93.3144 101.504H83.4062C81.4544 101.504 79.5825 100.722 78.2024 99.3288C76.8222 97.9359 76.0469 96.0468 76.0469 94.077V89.1256H80.9531V94.077C80.9531 94.7336 81.2116 95.3633 81.6716 95.8276C82.1317 96.2919 82.7556 96.5527 83.4062 96.5527H93.3144C93.6825 96.5526 94.0458 96.4688 94.3775 96.3077C94.7092 96.1466 95.0006 95.9122 95.2303 95.6219L103.031 85.7809V76.7471H107.938V86.6499C107.938 87.2123 107.748 87.758 107.4 88.1972L99.0596 98.7165C98.3717 99.5876 97.4977 100.291 96.5029 100.773C95.5081 101.256 94.4182 101.506 93.3144 101.504Z" fill="black"/>
<path d="M92.6398 111.407H78.5V106.455H92.6398C93.0953 106.455 93.5417 106.327 93.929 106.085C94.3163 105.843 94.6293 105.498 94.8329 105.086L98.125 98.4441V91.6012H103.031V99.0283C103.035 99.4114 102.951 99.7902 102.786 100.135L99.2338 107.302C98.6255 108.541 97.6849 109.582 96.5192 110.307C95.3535 111.033 94.0094 111.414 92.6398 111.407Z" fill="black"/>
<path d="M84.0907 141.115H70.4562C69.4253 141.117 68.4201 140.79 67.5834 140.182C66.7467 139.574 66.1211 138.716 65.7953 137.729L61.701 125.333C61.4501 124.574 61.3225 123.78 61.3232 122.981V108.931H66.2295V122.981C66.2287 123.247 66.271 123.511 66.3546 123.763L70.4562 136.164H84.0907C84.9427 136.201 85.7956 136.117 86.6248 135.916L90.6405 123.758C90.7231 123.507 90.7653 123.245 90.7657 122.981V108.931H95.6719V122.981C95.6726 123.78 95.545 124.574 95.2941 125.333L91.1974 137.731C90.0837 141.115 86.036 141.115 84.0907 141.115Z" fill="black"/>
<path d="M88.9062 141.041L87.7189 136.238L92.2596 135.092C93.2435 134.84 94.1257 134.287 94.7847 133.508C95.4437 132.728 95.8471 131.762 95.9393 130.742C96.13 127.112 96.953 123.545 98.3703 120.203C100.172 117.221 102.909 114.93 106.147 113.694C107.413 113.097 108.485 112.148 109.236 110.959C109.988 109.769 110.388 108.389 110.391 106.978V106.76L108.011 97.1543C107.906 96.7325 107.913 96.2902 108.031 95.8718L112.937 78.5419C113.099 77.9779 113.452 77.4896 113.935 77.1629L119.857 73.1795L115.37 55.0672L120.13 53.864L125.036 73.6697C125.159 74.1651 125.127 74.6868 124.945 75.1632C124.763 75.6397 124.439 76.0476 124.018 76.3311L117.407 80.7874L112.93 96.6047L115.223 105.864C115.271 106.057 115.296 106.256 115.297 106.456V106.978C115.296 109.332 114.629 111.637 113.376 113.623C112.122 115.608 110.333 117.192 108.22 118.188C106.019 119.003 104.118 120.478 102.774 122.416C101.648 125.219 100.993 128.192 100.838 131.213C100.648 133.255 99.8354 135.187 98.5122 136.743C97.189 138.3 95.4202 139.405 93.4494 139.905L88.9062 141.041Z" fill="black"/>
<path d="M85.8594 141.115V136.164C104.052 136.164 112.49 133.371 115.297 132.158V126.261C115.297 123.563 111.414 118.421 108.656 115.633L112.125 112.132C112.952 112.967 120.203 120.451 120.203 126.261V133.688C120.203 134.096 120.104 134.497 119.913 134.856C119.723 135.216 119.447 135.522 119.111 135.748C118.785 135.966 110.847 141.115 85.8594 141.115Z" fill="black"/>
<path d="M139.828 59.417C139.271 59.4173 138.73 59.2261 138.295 58.8748L127.072 49.8137L120.978 51.8636L119.428 47.1598L126.787 44.6841C127.176 44.5534 127.591 44.523 127.994 44.5957C128.397 44.6683 128.776 44.8417 129.096 45.1L139.271 53.3169L142.281 48.7715V34.8134C142.289 32.3375 141.557 29.9167 140.182 27.8664C138.807 25.8161 136.852 24.2314 134.571 23.3187L119.732 17.33H103.031V12.3785H120.203C120.515 12.3783 120.824 12.4379 121.113 12.5543L136.394 18.7213C139.586 19.999 142.324 22.2176 144.249 25.0879C146.174 27.9583 147.198 31.3473 147.188 34.8134V49.5142C147.187 50.0031 147.043 50.4809 146.775 50.8882L141.869 58.3153C141.68 58.6008 141.435 58.8435 141.148 59.028C140.861 59.2126 140.54 59.3349 140.203 59.3873C140.079 59.4071 139.954 59.4171 139.828 59.417Z" fill="black"/>
<path d="M127.563 96.5526C127.105 96.5552 126.655 96.4283 126.265 96.1863C125.875 95.9444 125.559 95.597 125.355 95.1836L120.448 85.2807C120.283 84.936 120.199 84.5572 120.203 84.1741V74.2712H125.109V83.5898L128.76 90.96L137.272 87.6599C138.741 86.8871 139.98 85.7331 140.86 84.3167C141.741 82.9003 142.231 81.2727 142.281 79.6015L137.51 65.1507C137.424 64.899 137.378 64.6348 137.375 64.3684V56.9413H142.281V63.9673L147.06 78.4403C147.144 78.6925 147.187 78.9567 147.188 79.2227C147.196 81.916 146.457 84.558 145.054 86.8491C143.651 89.1403 141.64 90.9889 139.249 92.1855L128.441 96.3942C128.16 96.5011 127.862 96.5548 127.563 96.5526Z" fill="black"/>
<path d="M144.734 155.97H130.016C129.659 155.97 129.307 155.891 128.984 155.74C128.661 155.588 128.374 155.368 128.144 155.093C127.914 154.819 127.745 154.497 127.651 154.15C127.557 153.803 127.538 153.44 127.597 153.085L129.974 138.682L125.158 114.378C125.041 113.792 125.138 113.183 125.433 112.665L134.922 95.8941V89.1255H139.828V96.5526C139.83 96.9867 139.718 97.4136 139.504 97.7905L130.148 114.316L134.873 138.145C134.931 138.439 134.936 138.742 134.888 139.038L132.913 151.018H143.719L144.992 149.731L152.094 123.454V94.3814L149.714 84.7757C149.665 84.5789 149.641 84.3769 149.641 84.1741V62.5784L142.632 50.7891L146.837 48.2391L154.196 60.6177C154.425 61.0027 154.547 61.4434 154.547 61.8927V83.8695L156.926 93.4753C156.975 93.672 157 93.8741 157 94.0769V123.785C157 124.005 156.971 124.224 156.914 124.437L149.555 151.669C149.442 152.085 149.224 152.464 148.922 152.769L146.469 155.244C146.009 155.709 145.385 155.969 144.734 155.97Z" fill="black"/>
<path d="M130.016 94.077H125.109V113.883H130.016V94.077Z" fill="black"/>
<path d="M125.109 155.97H31.8906C31.24 155.97 30.6161 155.709 30.156 155.244C29.696 154.78 29.4375 154.15 29.4375 153.494V148.542C29.4371 148.158 29.5253 147.78 29.6951 147.436L37.0545 132.582L41.4455 134.795L34.3438 149.127V151.018H122.656V149.127L115.542 134.795L119.933 132.582L127.293 147.436C127.467 147.778 127.559 148.157 127.562 148.542V153.494C127.562 154.15 127.304 154.78 126.844 155.244C126.384 155.709 125.76 155.97 125.109 155.97Z" fill="black"/>
<path d="M78.5 22.2814C77.3998 22.2842 76.3099 22.0668 75.2935 21.6419C74.277 21.2169 73.3541 20.5928 72.5782 19.8057L66.9531 14.1289C66.4931 13.6647 66.2345 13.0351 66.2344 12.3785V0H71.1406V11.3536L76.0469 16.305C76.7074 16.9424 77.5861 17.2981 78.5 17.2981C79.4139 17.2981 80.2926 16.9424 80.9531 16.305L85.8594 11.3536V0H90.7656V12.3785C90.7655 13.0351 90.5069 13.6647 90.0469 14.1289L84.4218 19.8057C83.6459 20.5928 82.723 21.2169 81.7065 21.6419C80.6901 22.0668 79.6002 22.2842 78.5 22.2814Z" fill="black"/>
<path d="M29.4375 46.875L25.9557 61.4648V72.1641L22.4738 81.2422" stroke="black" stroke-width="4"/>
<path d="M6.0141 88.0508L10.129 97.4531V116.258L12.6613 128.902L18.9919 148.031" stroke="black" stroke-width="4"/>
<path d="M18.9919 99.7227L16.1431 108.477L11.3951 124.363" stroke="black" stroke-width="4"/>
<path d="M18.9919 39.418L27.2218 35.2031L34.8186 37.7969" stroke="black" stroke-width="6"/>
<path d="M47.1633 21.2617L31.3367 25.1523L23.4234 29.043" stroke="black" stroke-width="6"/>
<path d="M127.563 46.875L131.044 61.4648V72.1641L134.526 81.2422" stroke="black" stroke-width="4"/>
<path d="M150.986 88.0508L146.871 97.4531V116.258L144.339 128.902L138.008 148.031" stroke="black" stroke-width="4"/>
<path d="M138.008 99.7227L140.857 108.477L145.605 124.363" stroke="black" stroke-width="4"/>
<path d="M138.008 39.418L129.778 35.2031L122.181 37.7969" stroke="black" stroke-width="6"/>
<path d="M109.837 21.2617L125.663 25.1523L133.577 29.043" stroke="black" stroke-width="6"/>
<path d="M76.6008 33.9062L61.4072 29.3672L50.6451 33.9062" stroke="black" stroke-width="6"/>
<path d="M65.2056 42.3359L77.2339 44.6055" stroke="black" stroke-width="6"/>
<path d="M72.4859 61.7891L59.8246 58.2227L49.0625 50.1172" stroke="black" stroke-width="6"/>
<path d="M80.0827 33.9062L94.6432 30.9883L103.823 30.0156" stroke="black" stroke-width="6"/>
<path d="M93.0605 42.3359L85.7802 45.2539L79.7661 49.4688" stroke="black" stroke-width="6"/>
<path d="M82.6149 61.1406H94.6431L110.47 52.0625" stroke="black" stroke-width="6"/>
</svg>
