<svg width="43" height="43" viewBox="0 0 43 43" fill="none" xmlns="http://www.w3.org/2000/svg">
<path d="M21.5 1C16.0686 1 10.8593 3.1554 7.0157 6.99293C3.17213 10.8305 1.00856 16.0364 1.00003 21.4678C0.991494 26.8992 3.13871 32.1119 6.9702 35.9615C10.8017 39.8111 16.0043 41.9828 21.4356 41.9999C26.8669 42.017 32.0831 39.8779 35.9387 36.0525C39.7943 32.2271 41.9742 27.0279 41.9998 21.5966C42.0254 16.1653 39.8945 10.9458 36.0752 7.08422C32.2558 3.22262 27.0601 1.03453 21.6288 1.0004L21.6162 3.00217C26.5171 3.03296 31.2055 5.00738 34.6519 8.49191C38.0983 11.9764 40.0211 16.6862 39.998 21.5872C39.9749 26.4881 38.0078 31.1796 34.5287 34.6315C31.0496 38.0834 26.3429 40.0135 21.4419 39.9981C16.5409 39.9827 11.8464 38.023 8.38902 34.5493C4.93167 31.0757 2.99413 26.3719 3.00183 21.4709C3.00952 16.57 4.96183 11.8723 8.43008 8.40953C11.8983 4.94673 16.599 3.0018 21.5 3.0018L21.5 1Z" stroke="#797979" stroke-width="2"/>
</svg>
